<svg width="24" height="24" viewBox="0 0 24 24" fill="currentColor" xmlns="http://www.w3.org/2000/svg">
<path  d="M17 16.4996V16.4999C16.9999 17.3454 16.7854 18.1771 16.3765 18.9171C15.9677 19.6572 15.3778 20.2815 14.6621 20.7316C13.9465 21.1818 13.1283 21.4431 12.2842 21.4912C11.4401 21.5392 10.5976 21.3724 9.83541 21.0064C9.07327 20.6404 8.41638 20.0871 7.92618 19.3982C7.43597 18.7093 7.12846 17.9074 7.03239 17.0674C6.93631 16.2274 7.05482 15.3767 7.37682 14.595C7.69883 13.8132 8.21382 13.1259 8.87364 12.5972C9.23514 12.3081 9.5 11.8627 9.5 11.347V5C9.5 4.33696 9.76339 3.70107 10.2322 3.23223C10.7011 2.76339 11.337 2.5 12 2.5C12.663 2.5 13.2989 2.76339 13.7678 3.23223C14.2366 3.70107 14.5 4.33696 14.5 5V11.348C14.5 11.8633 14.7654 12.3083 15.1259 12.5979L15.1267 12.5985C15.7118 13.0664 16.184 13.66 16.5083 14.3354C16.8326 15.0107 17.0006 15.7504 17 16.4996Z" 
fill="black" stroke="black"/>
<path scale="1.2" d="M12.75 5C12.75 4.80109 12.671 4.61032 12.5303 4.46967C12.3897 4.32902 12.1989 4.25 12 4.25C11.8011 4.25 11.6103 4.32902 11.4697 4.46967C11.329 4.61032 11.25 4.80109 11.25 5V13.38C11.25 13.817 10.953 14.188 10.592 14.434C10.1504 14.735 9.81693 15.1695 9.64038 15.6738C9.46384 16.1782 9.45354 16.7259 9.61101 17.2365C9.76849 17.7472 10.0854 18.1939 10.5154 18.5112C10.9453 18.8286 11.4656 18.9998 12 18.9998C12.5344 18.9998 13.0547 18.8286 13.4846 18.5112C13.9146 18.1939 14.2315 17.7472 14.389 17.2365C14.5465 16.7259 14.5362 16.1782 14.3596 15.6738C14.1831 15.1695 13.8496 14.735 13.408 14.434C13.048 14.188 12.75 13.817 12.75 13.38V5Z" 
fill="#f9f9f9"/>
</svg>
