<svg width="20" height="20" viewBox="0 0 21 16" fill="currentColor" xmlns="http://www.w3.org/2000/svg">
<path d="M3.5 8C3.5 8.91925 3.68106 9.82951 4.03284 10.6788C4.38463 11.5281 4.90024 12.2997 5.55025 12.9497C6.20026 13.5998 6.97194 14.1154 7.82122 14.4672C8.67049 14.8189 9.58075 15 10.5 15C11.4193 15 12.3295 14.8189 13.1788 14.4672C14.0281 14.1154 14.7997 13.5998 15.4497 12.9497C16.0998 12.2997 16.6154 11.5281 16.9672 10.6788C17.3189 9.82951 17.5 8.91925 17.5 8M3.5 8C3.5 7.08075 3.68106 6.1705 4.03284 5.32122C4.38463 4.47194 4.90024 3.70026 5.55025 3.05025C6.20026 2.40024 6.97194 1.88463 7.82122 1.53284C8.67049 1.18106 9.58075 1 10.5 1C11.4193 1 12.3295 1.18106 13.1788 1.53284C14.0281 1.88463 14.7997 2.40024 15.4497 3.05025C16.0998 3.70026 16.6154 4.47194 16.9672 5.32122C17.3189 6.1705 17.5 7.08075 17.5 8M3.5 8H0.5M17.5 8H20.5" stroke="black" stroke-linecap="round" stroke-linejoin="round"/>
<path d="M8.5 6L10.5 10L12.5 6" stroke="black" stroke-linecap="round" stroke-linejoin="round"/>
</svg>
                                                                                                            