<svg width="16" height="16" viewBox="0 0 23 24" fill="none" xmlns="http://www.w3.org/2000/svg">
<path d="M7.835 17.57L11.58 6.395L15.165 17.605M13.965 13.855H9.08M11.5 1.25C9.58332 1.25 7.7015 1.76245 6.04946 2.73425C4.39741 3.70606 3.03524 5.10189 2.10402 6.77715C1.17281 8.45242 0.706436 10.3462 0.753201 12.2623C0.799966 14.1784 1.35817 16.0472 2.37 17.675C1.95722 18.1276 1.72734 18.7174 1.725 19.33C1.72362 19.8049 1.86085 20.2698 2.11986 20.6679C2.37886 21.0659 2.74839 21.3797 3.18313 21.5708C3.61787 21.7619 4.09893 21.822 4.56731 21.7437C5.0357 21.6654 5.47106 21.4521 5.82 21.13C7.88152 22.4098 10.3153 22.9549 12.7257 22.6767C15.1362 22.3985 17.3818 21.3134 19.0976 19.5976C20.8134 17.8818 21.8985 15.6362 22.1767 13.2257C22.4549 10.8153 21.9098 8.38152 20.63 6.32C21.0467 5.85398 21.269 5.24606 21.2513 4.62117C21.2337 3.99629 20.9773 3.40191 20.5349 2.96019C20.0926 2.51847 19.4978 2.26297 18.8729 2.2462C18.248 2.22942 17.6404 2.45265 17.175 2.87C15.4718 1.81041 13.5059 1.2492 11.5 1.25Z" stroke="black" stroke-linecap="round" />
</svg>
