<svg width="20" height="20" viewBox="0 0 20 20" fill="currentColor" xmlns="http://www.w3.org/2000/svg">
<path d="M10.0001 3.54167C9.61331 3.54167 9.24238 3.69531 8.96888 3.9688C8.69539 4.24229 8.54175 4.61323 8.54175 5V11.5779L8.35092 11.7346C7.93519 12.0748 7.63483 12.5352 7.491 13.0527C7.34717 13.5703 7.36691 14.1197 7.54751 14.6256C7.72812 15.1315 8.06075 15.5691 8.49982 15.8786C8.93889 16.1881 9.46291 16.3542 10.0001 16.3542C10.5373 16.3542 11.0613 16.1881 11.5003 15.8786C11.9394 15.5691 12.272 15.1315 12.4527 14.6256C12.6333 14.1197 12.653 13.5703 12.5092 13.0527C12.3653 12.5352 12.065 12.0748 11.6492 11.7346L11.4584 11.5779V5C11.4584 4.80849 11.4207 4.61885 11.3474 4.44192C11.2741 4.26499 11.1667 4.10422 11.0313 3.9688C10.8959 3.83338 10.7351 3.72596 10.5582 3.65268C10.3812 3.57939 10.1916 3.54167 10.0001 3.54167ZM7.50008 5C7.50008 4.33696 7.76347 3.70107 8.23232 3.23223C8.70116 2.76339 9.33704 2.5 10.0001 2.5C10.6631 2.5 11.299 2.76339 11.7678 3.23223C12.2367 3.70107 12.5001 4.33696 12.5001 5V11.0963C13.0317 11.5971 13.4006 12.246 13.5591 12.9589C13.7175 13.6718 13.6582 14.4159 13.3888 15.0948C13.1194 15.7736 12.6523 16.3559 12.0481 16.7662C11.4439 17.1764 10.7304 17.3958 10.0001 17.3958C9.26974 17.3958 8.55624 17.1764 7.95203 16.7662C7.34782 16.3559 6.88075 15.7736 6.61135 15.0948C6.34195 14.4159 6.28264 13.6718 6.4411 12.9589C6.59956 12.246 6.96849 11.5971 7.50008 11.0963V5ZM11.6667 13.75C11.6667 14.0571 11.5818 14.3582 11.4215 14.6201C11.2611 14.8821 11.0315 15.0946 10.758 15.2342C10.4845 15.3739 10.1777 15.4353 9.87152 15.4116C9.56532 15.3879 9.27163 15.28 9.02286 15.1C8.77408 14.9199 8.57989 14.6746 8.46173 14.3911C8.34356 14.1077 8.30602 13.7971 8.35323 13.4936C8.40044 13.1902 8.53058 12.9057 8.72929 12.6715C8.92799 12.4373 9.18752 12.2626 9.47925 12.1667V7.60417C9.47925 7.46603 9.53412 7.33356 9.6318 7.23588C9.72947 7.13821 9.86195 7.08333 10.0001 7.08333C10.1382 7.08333 10.2707 7.13821 10.3684 7.23588C10.466 7.33356 10.5209 7.46603 10.5209 7.60417V12.1667C10.8542 12.2764 11.1444 12.4886 11.3501 12.7729C11.5558 13.0571 11.6667 13.3991 11.6667 13.75Z" 
fill="currentColor "/>
</svg>
