<svg width="18" height="14" viewBox="0 0 18 14" fill="currentColor" xmlns="http://www.w3.org/2000/svg">
<path d="M17 4C17 3.20435 16.6839 2.44129 16.1213 1.87868C15.5587 1.31607 14.7956 1 14 1H13C12.2044 1 11.4413 1.31607 10.8787 1.87868C10.3161 2.44129 10 3.20435 10 4V10C10 10.7956 10.3161 11.5587 10.8787 12.1213C11.4413 12.6839 12.2044 13 13 13H14C14.7956 13 15.5587 12.6839 16.1213 12.1213C16.6839 11.5587 17 10.7956 17 10M1 3C1 3.53043 1.21071 4.03914 1.58579 4.41421C1.96086 4.78929 2.46957 5 3 5C3.53043 5 4.03914 4.78929 4.41421 4.41421C4.78929 4.03914 5 3.53043 5 3C5 2.46957 4.78929 1.96086 4.41421 1.58579C4.03914 1.21071 3.53043 1 3 1C2.46957 1 1.96086 1.21071 1.58579 1.58579C1.21071 1.96086 1 2.46957 1 3Z" stroke="black" stroke-linecap="round" stroke-linejoin="round"/>
</svg>
